<svg xmlns="http://www.w3.org/2000/svg" xmlns:svg="http://www.w3.org/2000/svg" xmlns:xlink="http://www.w3.org/1999/xlink" id="svg5589" width="204.293" height="204.293" version="1.1" viewBox="0 0 54.053 54.053"><defs id="defs5583"><linearGradient id="linearGradient5540" x1="-86.857" x2="52.764" y1="-115.564" y2="144.015" gradientTransform="matrix(0.14883897,0,0,0.15027592,4.0547886,29.542673)" gradientUnits="userSpaceOnUse" xlink:href="#linearGradient4689"/><linearGradient id="linearGradient4689"><stop id="stop4691" offset="0" style="stop-color:#5a9fd4;stop-opacity:1"/><stop id="stop4693" offset="1" style="stop-color:#306998;stop-opacity:1"/></linearGradient><linearGradient id="linearGradient5633" x1="-86.857" x2="52.764" y1="-115.564" y2="144.015" gradientTransform="matrix(0.14883897,0,0,0.15027592,4.0547886,29.542673)" gradientUnits="userSpaceOnUse" xlink:href="#linearGradient4689"/><linearGradient id="linearGradient5635" x1="-86.857" x2="52.764" y1="-115.564" y2="144.015" gradientTransform="matrix(0.14883897,0,0,0.15027592,4.0547886,29.542673)" gradientUnits="userSpaceOnUse" xlink:href="#linearGradient4689"/></defs><metadata id="metadata5586"/><g id="layer1" transform="translate(-139.86527,-146.59472)"><path style="color:#000;clip-rule:nonzero;display:inline;overflow:visible;visibility:visible;opacity:1;isolation:auto;mix-blend-mode:normal;color-interpolation:sRGB;color-interpolation-filters:linearRGB;solid-color:#000;solid-opacity:1;vector-effect:none;fill:#d2e7fa;fill-opacity:1;fill-rule:nonzero;stroke:#306998;stroke-width:2.43000007;stroke-linecap:butt;stroke-linejoin:miter;stroke-miterlimit:4;stroke-dasharray:none;stroke-dashoffset:0;stroke-opacity:1;marker:none;marker-start:none;marker-mid:none;marker-end:none;color-rendering:auto;image-rendering:auto;shape-rendering:auto;text-rendering:auto;enable-background:accumulate" id="path4908-77-8-0" d="m 165.59091,148.55808 c -13.5367,-1.9e-4 -24.51052,10.044 -24.51064,22.43428 -1.9e-4,12.3905 10.97371,22.435 24.51064,22.43481 3.34454,-0.009 6.65164,-0.64471 9.71776,-1.86759 0.2437,-0.0805 11.69919,6.14182 17.95753,7.13942 -6.99554,-4.44469 -10.01373,-11.10876 -9.28623,-12.90289 3.93761,-4.08997 6.11352,-9.35235 6.12109,-14.80375 -1.4e-4,-12.39009 -10.97362,-22.43421 -24.51015,-22.43428 z"/><g id="use13406-2-2-7-9-0-5-5-6" transform="matrix(-0.61058134,0.58197898,-0.58197898,-0.61058134,748.49384,-66.144155)"><ellipse transform="rotate(-1.9840008)" style="color:#000;clip-rule:nonzero;display:inline;overflow:visible;visibility:visible;opacity:1;isolation:auto;mix-blend-mode:normal;color-interpolation:sRGB;color-interpolation-filters:linearRGB;solid-color:#000;solid-opacity:1;vector-effect:none;fill:#ffd43b;fill-opacity:1;fill-rule:nonzero;stroke:#4482b4;stroke-width:.0429756;stroke-linecap:butt;stroke-linejoin:miter;stroke-miterlimit:4;stroke-dasharray:none;stroke-dashoffset:0;stroke-opacity:1;marker:none;marker-start:none;marker-mid:none;marker-end:none;color-rendering:auto;image-rendering:auto;shape-rendering:auto;text-rendering:auto;enable-background:accumulate" id="use7838-1-6-4-4-0-2" cx="689.078" cy="279.17" rx="2.01" ry="1.849"/><g id="g7842-7-3-4-8-6-9" transform="matrix(-0.9961282,0.08791246,0.08791246,0.9961282,704.74992,216.96001)"><path style="fill:url(#linearGradient5633);fill-opacity:1;stroke-width:.26458332" id="path7840-27-8-4-1-4-9" d="m 15.3234,33.004502 c -3.303492,0.07446 -6.1437556,1.504007 -9.2216051,3.637225 -3.0778495,2.133218 1.1469662,4.696443 2.2243048,4.724767 0.4064221,0.07588 7.4213833,-2.193711 7.5353703,-2.114185 -7.3702624,3.235119 -17.438782,5.601128 -17.5429341,11.95308 -0.056078,3.420038 5.6067196,5.019668 8.3397073,5.163067 2.7329877,0.143399 5.8908108,-0.376697 8.0717988,-1.744073 0,0 -5.6723856,-0.571553 -6.6108579,-1.705741 C 4.2006539,48.182914 20.758645,45.864429 22.535439,39.558198 22.959329,38.053721 22.33965,36.180141 21.266061,35.044121 19.827575,33.521985 17.41718,32.957309 15.3234,33.004502 Z m -5.8055665,3.154757 c 0.7327735,0 1.3311835,0.60818 1.3311835,1.35599 0,0.74515 -0.59841,1.34772 -1.3311835,1.34772 -0.7354039,0 -1.331185,-0.60257 -1.331185,-1.34772 0,-0.74781 0.5957811,-1.35599 1.331185,-1.35599 z"/></g><ellipse transform="rotate(-1.9840008)" style="color:#000;clip-rule:nonzero;display:inline;overflow:visible;visibility:visible;opacity:1;isolation:auto;mix-blend-mode:normal;color-interpolation:sRGB;color-interpolation-filters:linearRGB;solid-color:#000;solid-opacity:1;vector-effect:none;fill:#ffd43b;fill-opacity:1;fill-rule:nonzero;stroke:#4482b4;stroke-width:.0429756;stroke-linecap:butt;stroke-linejoin:miter;stroke-miterlimit:4;stroke-dasharray:none;stroke-dashoffset:0;stroke-opacity:1;marker:none;marker-start:none;marker-mid:none;marker-end:none;color-rendering:auto;image-rendering:auto;shape-rendering:auto;text-rendering:auto;enable-background:accumulate" id="use7844-2-5-4-2-6-0" cx="698.058" cy="308.636" rx="2.01" ry="1.849"/><g id="use7846-2-6-7-89-2-8" transform="matrix(0.42192968,-0.90662856,-0.90662856,-0.42192968,738.18801,309.07018)"><path style="fill:url(#linearGradient5635);fill-opacity:1;stroke-width:.26458332" id="path7862-6-1-6-3-5-1" d="m 15.3234,33.004502 c -3.303492,0.07446 -6.1437556,1.504007 -9.2216051,3.637225 -3.0778495,2.133218 1.1469662,4.696443 2.2243048,4.724767 0.4064221,0.07588 7.4213833,-2.193711 7.5353703,-2.114185 -7.3702624,3.235119 -17.438782,5.601128 -17.5429341,11.95308 -0.056078,3.420038 5.6067196,5.019668 8.3397073,5.163067 2.7329877,0.143399 5.8908108,-0.376697 8.0717988,-1.744073 0,0 -5.6723856,-0.571553 -6.6108579,-1.705741 C 4.2006539,48.182914 20.758645,45.864429 22.535439,39.558198 22.959329,38.053721 22.33965,36.180141 21.266061,35.044121 19.827575,33.521985 17.41718,32.957309 15.3234,33.004502 Z m -5.8055665,3.154757 c 0.7327735,0 1.3311835,0.60818 1.3311835,1.35599 0,0.74515 -0.59841,1.34772 -1.3311835,1.34772 -0.7354039,0 -1.331185,-0.60257 -1.331185,-1.34772 0,-0.74781 0.5957811,-1.35599 1.331185,-1.35599 z"/></g><ellipse transform="rotate(-1.9840008)" style="color:#000;clip-rule:nonzero;display:inline;overflow:visible;visibility:visible;opacity:1;isolation:auto;mix-blend-mode:normal;color-interpolation:sRGB;color-interpolation-filters:linearRGB;solid-color:#000;solid-opacity:1;vector-effect:none;fill:#ffd43b;fill-opacity:1;fill-rule:nonzero;stroke:#4482b4;stroke-width:.0429756;stroke-linecap:butt;stroke-linejoin:miter;stroke-miterlimit:4;stroke-dasharray:none;stroke-dashoffset:0;stroke-opacity:1;marker:none;marker-start:none;marker-mid:none;marker-end:none;color-rendering:auto;image-rendering:auto;shape-rendering:auto;text-rendering:auto;enable-background:accumulate" id="use7848-1-15-3-68-8-3" cx="667.984" cy="301.387" rx="2.01" ry="1.849"/><g id="use7850-06-9-1-02-6-1" transform="matrix(0.57419852,0.8187161,0.8187161,-0.57419852,641.69928,291.97337)"><path style="fill:url(#linearGradient5540);fill-opacity:1;stroke-width:.26458332" id="path7856-1-8-7-1-2-1" d="m 15.3234,33.004502 c -3.303492,0.07446 -6.1437556,1.504007 -9.2216051,3.637225 -3.0778495,2.133218 1.1469662,4.696443 2.2243048,4.724767 0.4064221,0.07588 7.4213833,-2.193711 7.5353703,-2.114185 -7.3702624,3.235119 -17.438782,5.601128 -17.5429341,11.95308 -0.056078,3.420038 5.6067196,5.019668 8.3397073,5.163067 2.7329877,0.143399 5.8908108,-0.376697 8.0717988,-1.744073 0,0 -5.6723856,-0.571553 -6.6108579,-1.705741 C 4.2006539,48.182914 20.758645,45.864429 22.535439,39.558198 22.959329,38.053721 22.33965,36.180141 21.266061,35.044121 19.827575,33.521985 17.41718,32.957309 15.3234,33.004502 Z m -5.8055665,3.154757 c 0.7327735,0 1.3311835,0.60818 1.3311835,1.35599 0,0.74515 -0.59841,1.34772 -1.3311835,1.34772 -0.7354039,0 -1.331185,-0.60257 -1.331185,-1.34772 0,-0.74781 0.5957811,-1.35599 1.331185,-1.35599 z"/></g></g></g></svg>