<svg xmlns="http://www.w3.org/2000/svg" xmlns:svg="http://www.w3.org/2000/svg" xmlns:xlink="http://www.w3.org/1999/xlink" id="svg6920" width="192" height="192" version="1.1" viewBox="0 0 50.8 50.8"><defs id="defs6914"><linearGradient id="linearGradient7854" x1="-86.857" x2="52.764" y1="-115.564" y2="144.015" gradientTransform="matrix(0.14883897,0,0,0.15027592,4.0547886,29.542673)" gradientUnits="userSpaceOnUse" xlink:href="#linearGradient4689"/><linearGradient id="linearGradient4689"><stop id="stop4691" offset="0" style="stop-color:#5a9fd4;stop-opacity:1"/><stop id="stop4693" offset="1" style="stop-color:#306998;stop-opacity:1"/></linearGradient><linearGradient id="linearGradient8074" x1="-86.857" x2="52.764" y1="-115.564" y2="144.015" gradientTransform="matrix(0.14883897,0,0,0.15027592,4.0547886,29.542673)" gradientUnits="userSpaceOnUse" xlink:href="#linearGradient4689"/><linearGradient id="linearGradient8076" x1="-86.857" x2="52.764" y1="-115.564" y2="144.015" gradientTransform="matrix(0.14883897,0,0,0.15027592,4.0547886,29.542673)" gradientUnits="userSpaceOnUse" xlink:href="#linearGradient4689"/></defs><metadata id="metadata6917"/><g id="layer1" transform="translate(-42.631046,-91.382345)"><g id="g8192-4-3" transform="matrix(1.0955007,0,0,1.0955007,-784.48788,-248.40155)"><circle id="path12807-0-5" cx="778.2" cy="333.349" style="color:#000;clip-rule:nonzero;display:inline;overflow:visible;visibility:visible;opacity:1;isolation:auto;mix-blend-mode:normal;color-interpolation:sRGB;color-interpolation-filters:linearRGB;solid-color:#000;solid-opacity:1;vector-effect:none;fill:#d2e7fa;fill-opacity:1;fill-rule:nonzero;stroke:#306998;stroke-width:.84848362;stroke-linecap:butt;stroke-linejoin:miter;stroke-miterlimit:4;stroke-dasharray:none;stroke-dashoffset:0;stroke-opacity:1;marker:none;marker-start:none;marker-mid:none;marker-end:none;color-rendering:auto;image-rendering:auto;shape-rendering:auto;text-rendering:auto;enable-background:accumulate" r="22.762"/><g id="g6904-6-4-4-3-59-6" transform="matrix(0.7535259,0,0,0.7535259,309.93798,169.53649)"><ellipse style="color:#000;clip-rule:nonzero;display:inline;overflow:visible;visibility:visible;opacity:1;isolation:auto;mix-blend-mode:normal;color-interpolation:sRGB;color-interpolation-filters:linearRGB;solid-color:#000;solid-opacity:1;vector-effect:none;fill:#ffd43b;fill-opacity:1;fill-rule:nonzero;stroke:#4482b4;stroke-width:.05;stroke-linecap:butt;stroke-linejoin:miter;stroke-miterlimit:4;stroke-dasharray:none;stroke-dashoffset:0;stroke-opacity:1;marker:none;marker-start:none;marker-mid:none;marker-end:none;color-rendering:auto;image-rendering:auto;shape-rendering:auto;text-rendering:auto;enable-background:accumulate" id="path6834-8-0-2-0-1-46-2" cx="623.397" cy="239.859" rx="2.339" ry="2.152"/><g aria-label="TRIO" style="font-style:normal;font-variant:normal;font-weight:500;font-stretch:normal;font-size:6.56474447px;line-height:125%;font-family:Montserrat;-inkscape-font-specification:'Montserrat Medium';text-align:start;letter-spacing:0;word-spacing:0;writing-mode:lr-tb;text-anchor:start;fill:#306a98;fill-opacity:1;stroke:none;stroke-width:.182354px;stroke-linecap:butt;stroke-linejoin:miter;stroke-opacity:1" id="text5266-35-8-6-7-6-8-2-2-9-4-9-9"><path d="m 607.82113,237.55223 v 0.78121 h 1.43112 v 3.81411 h 0.88624 v -3.81411 h 1.43111 v -0.78121 z" style="font-style:normal;font-variant:normal;font-weight:500;font-stretch:normal;font-family:Montserrat;-inkscape-font-specification:'Montserrat Medium';text-align:start;letter-spacing:.79141641px;text-anchor:start;fill:#306a98;fill-opacity:1;stroke-width:.182354px" id="path8078"/><path d="m 616.86372,242.14755 -1.01097,-1.52302 c 0.59082,-0.24946 0.91249,-0.76807 0.91249,-1.4902 0,-1.01097 -0.67616,-1.5821 -1.86438,-1.5821 h -1.91691 v 4.59532 h 0.87968 v -1.35233 h 1.03723 c 0.0591,0 0.1116,0 0.16412,-0.007 l 0.79433,1.3589 z m -3.00009,-3.82724 h 1.03723 c 0.65647,0 1.0241,0.27572 1.0241,0.84028 0,0.5777 -0.36763,0.85999 -1.0241,0.85999 h -1.03723 z" style="font-style:normal;font-variant:normal;font-weight:500;font-stretch:normal;font-family:Montserrat;-inkscape-font-specification:'Montserrat Medium';text-align:start;letter-spacing:.79141641px;text-anchor:start;fill:#306a98;fill-opacity:1;stroke-width:.182354px" id="path8080"/><path d="m 618.51942,237.55223 v 4.59532 h 0.87968 v -4.59532 z" style="font-style:normal;font-variant:normal;font-weight:500;font-stretch:normal;font-family:Montserrat;-inkscape-font-specification:'Montserrat Medium';text-align:start;letter-spacing:.79141641px;text-anchor:start;fill:#306a98;fill-opacity:1;stroke-width:.182354px" id="path8082"/><path d="m 623.41144,237.52597 c -1.38516,0 -2.44865,0.99784 -2.44865,2.32392 0,1.31952 1.06349,2.33705 2.44865,2.33705 1.38517,0 2.44865,-1.01753 2.44865,-2.33705 0,-1.31951 -1.06348,-2.32392 -2.44865,-2.32392 z m 0.0131,0.78777 c 0.84029,0 1.53615,0.66961 1.53615,1.53615 0,0.86655 -0.69586,1.54928 -1.53615,1.54928 -0.84685,0 -1.56241,-0.68273 -1.56241,-1.54928 0,-0.86654 0.709,-1.53615 1.56241,-1.53615 z" style="font-style:normal;font-variant:normal;font-weight:500;font-stretch:normal;font-family:Montserrat;-inkscape-font-specification:'Montserrat Medium';text-align:start;letter-spacing:.79141641px;text-anchor:start;fill:#306a98;fill-opacity:1;stroke-width:.182354px" id="path8084"/></g></g><g id="use13406-2-2" transform="matrix(-0.6345993,0.6048718,-0.6048718,-0.6345993,1384.0991,86.070958)"><ellipse id="use7838" cx="689.078" cy="279.17" rx="2.01" ry="1.849" style="color:#000;clip-rule:nonzero;display:inline;overflow:visible;visibility:visible;opacity:1;isolation:auto;mix-blend-mode:normal;color-interpolation:sRGB;color-interpolation-filters:linearRGB;solid-color:#000;solid-opacity:1;vector-effect:none;fill:#ffd43b;fill-opacity:1;fill-rule:nonzero;stroke:#4482b4;stroke-width:.0429756;stroke-linecap:butt;stroke-linejoin:miter;stroke-miterlimit:4;stroke-dasharray:none;stroke-dashoffset:0;stroke-opacity:1;marker:none;marker-start:none;marker-mid:none;marker-end:none;color-rendering:auto;image-rendering:auto;shape-rendering:auto;text-rendering:auto;enable-background:accumulate" transform="rotate(-1.9840008)"/><g id="g7842" transform="matrix(-0.9961282,0.08791246,0.08791246,0.9961282,704.74992,216.96001)"><path id="path7840" d="m 15.3234,33.004502 c -3.303492,0.07446 -6.1437556,1.504007 -9.2216051,3.637225 -3.0778495,2.133218 1.1469662,4.696443 2.2243048,4.724767 0.4064221,0.07588 7.4213833,-2.193711 7.5353703,-2.114185 -7.3702624,3.235119 -17.438782,5.601128 -17.5429341,11.95308 -0.056078,3.420038 5.6067196,5.019668 8.3397073,5.163067 2.7329877,0.143399 5.8908108,-0.376697 8.0717988,-1.744073 0,0 -5.6723856,-0.571553 -6.6108579,-1.705741 C 4.2006539,48.182914 20.758645,45.864429 22.535439,39.558198 22.959329,38.053721 22.33965,36.180141 21.266061,35.044121 19.827575,33.521985 17.41718,32.957309 15.3234,33.004502 Z m -5.8055665,3.154757 c 0.7327735,0 1.3311835,0.60818 1.3311835,1.35599 0,0.74515 -0.59841,1.34772 -1.3311835,1.34772 -0.7354039,0 -1.331185,-0.60257 -1.331185,-1.34772 0,-0.74781 0.5957811,-1.35599 1.331185,-1.35599 z" style="fill:url(#linearGradient8074);fill-opacity:1;stroke-width:.26458332"/></g><ellipse id="use7844" cx="698.058" cy="308.636" rx="2.01" ry="1.849" style="color:#000;clip-rule:nonzero;display:inline;overflow:visible;visibility:visible;opacity:1;isolation:auto;mix-blend-mode:normal;color-interpolation:sRGB;color-interpolation-filters:linearRGB;solid-color:#000;solid-opacity:1;vector-effect:none;fill:#ffd43b;fill-opacity:1;fill-rule:nonzero;stroke:#4482b4;stroke-width:.0429756;stroke-linecap:butt;stroke-linejoin:miter;stroke-miterlimit:4;stroke-dasharray:none;stroke-dashoffset:0;stroke-opacity:1;marker:none;marker-start:none;marker-mid:none;marker-end:none;color-rendering:auto;image-rendering:auto;shape-rendering:auto;text-rendering:auto;enable-background:accumulate" transform="rotate(-1.9840008)"/><g id="use7846" transform="matrix(0.42192968,-0.90662856,-0.90662856,-0.42192968,738.18801,309.07018)"><path id="path7862" d="m 15.3234,33.004502 c -3.303492,0.07446 -6.1437556,1.504007 -9.2216051,3.637225 -3.0778495,2.133218 1.1469662,4.696443 2.2243048,4.724767 0.4064221,0.07588 7.4213833,-2.193711 7.5353703,-2.114185 -7.3702624,3.235119 -17.438782,5.601128 -17.5429341,11.95308 -0.056078,3.420038 5.6067196,5.019668 8.3397073,5.163067 2.7329877,0.143399 5.8908108,-0.376697 8.0717988,-1.744073 0,0 -5.6723856,-0.571553 -6.6108579,-1.705741 C 4.2006539,48.182914 20.758645,45.864429 22.535439,39.558198 22.959329,38.053721 22.33965,36.180141 21.266061,35.044121 19.827575,33.521985 17.41718,32.957309 15.3234,33.004502 Z m -5.8055665,3.154757 c 0.7327735,0 1.3311835,0.60818 1.3311835,1.35599 0,0.74515 -0.59841,1.34772 -1.3311835,1.34772 -0.7354039,0 -1.331185,-0.60257 -1.331185,-1.34772 0,-0.74781 0.5957811,-1.35599 1.331185,-1.35599 z" style="fill:url(#linearGradient8076);fill-opacity:1;stroke-width:.26458332"/></g><ellipse id="use7848" cx="667.984" cy="301.387" rx="2.01" ry="1.849" style="color:#000;clip-rule:nonzero;display:inline;overflow:visible;visibility:visible;opacity:1;isolation:auto;mix-blend-mode:normal;color-interpolation:sRGB;color-interpolation-filters:linearRGB;solid-color:#000;solid-opacity:1;vector-effect:none;fill:#ffd43b;fill-opacity:1;fill-rule:nonzero;stroke:#4482b4;stroke-width:.0429756;stroke-linecap:butt;stroke-linejoin:miter;stroke-miterlimit:4;stroke-dasharray:none;stroke-dashoffset:0;stroke-opacity:1;marker:none;marker-start:none;marker-mid:none;marker-end:none;color-rendering:auto;image-rendering:auto;shape-rendering:auto;text-rendering:auto;enable-background:accumulate" transform="rotate(-1.9840008)"/><g id="use7850" transform="matrix(0.57419852,0.8187161,0.8187161,-0.57419852,641.69928,291.97337)"><path id="path7856" d="m 15.3234,33.004502 c -3.303492,0.07446 -6.1437556,1.504007 -9.2216051,3.637225 -3.0778495,2.133218 1.1469662,4.696443 2.2243048,4.724767 0.4064221,0.07588 7.4213833,-2.193711 7.5353703,-2.114185 -7.3702624,3.235119 -17.438782,5.601128 -17.5429341,11.95308 -0.056078,3.420038 5.6067196,5.019668 8.3397073,5.163067 2.7329877,0.143399 5.8908108,-0.376697 8.0717988,-1.744073 0,0 -5.6723856,-0.571553 -6.6108579,-1.705741 C 4.2006539,48.182914 20.758645,45.864429 22.535439,39.558198 22.959329,38.053721 22.33965,36.180141 21.266061,35.044121 19.827575,33.521985 17.41718,32.957309 15.3234,33.004502 Z m -5.8055665,3.154757 c 0.7327735,0 1.3311835,0.60818 1.3311835,1.35599 0,0.74515 -0.59841,1.34772 -1.3311835,1.34772 -0.7354039,0 -1.331185,-0.60257 -1.331185,-1.34772 0,-0.74781 0.5957811,-1.35599 1.331185,-1.35599 z" style="fill:url(#linearGradient7854);fill-opacity:1;stroke-width:.26458332"/></g></g></g></g></svg>